<?xml version="1.0" standalone="no"?>
<!DOCTYPE svg PUBLIC "-//W3C//DTD SVG 20010904//EN"
  "http://www.w3.org/TR/2001/REC-SVG-20010904/DTD/svg10.dtd">
<svg version="1.0" xmlns="http://www.w3.org/2000/svg"
     width="500.000000pt" height="500.000000pt" viewBox="0 0 500.000000 500.000000"
     preserveAspectRatio="xMidYMid meet">

  <g transform="translate(0.000000,500.000000) scale(0.100000,-0.100000)"
     fill="#000000" stroke="none">
    <path d="M1246 3143 c-305 -3 -342 -5 -359 -21 -17 -15 -19 -29 -16 -147 2
-71 0 -175 -3 -230 -4 -55 -4 -86 0 -70 8 28 8 27 15 -20 14 -98 28 -85 22 20
-3 55 -7 169 -9 254 -3 139 -1 156 15 172 11 11 24 19 30 19 6 0 1 -9 -12 -19
l-24 -20 45 11 c25 6 98 10 163 10 64 0 117 2 117 4 0 3 -10 9 -22 14 -15 6
27 8 122 8 97 -1 127 -3 90 -8 -53 -6 -51 -6 35 -10 50 -3 185 -2 300 1 177 6
214 5 234 -8 l23 -15 -7 -242 c-4 -132 -8 -373 -10 -535 l-3 -294 -33 -4 c-19
-2 -59 -7 -89 -12 -30 -5 -114 -7 -186 -4 l-131 6 11 23 c11 24 12 24 182 24
150 0 173 2 187 18 14 15 16 76 19 490 3 441 2 474 -14 486 -12 9 -69 15 -164
19 -85 3 -151 10 -157 16 -16 16 -230 13 -302 -4 -37 -9 -112 -15 -196 -15
-93 0 -140 -4 -151 -12 -14 -11 -17 -40 -20 -171 -2 -86 1 -157 6 -157 4 0 5
-17 1 -37 -4 -21 -7 -166 -6 -323 1 -215 5 -288 14 -298 10 -9 81 -14 262 -18
137 -3 251 -7 253 -8 1 -2 5 -13 7 -26 l4 -22 -107 6 c-59 4 -187 10 -284 14
-97 4 -179 9 -182 12 -7 8 -14 166 -16 375 -1 94 -4 161 -7 150 -3 -11 -9 -24
-14 -29 -12 -14 -12 -263 1 -271 6 -3 9 -30 8 -58 -1 -47 -2 -48 -5 -12 -9 89
-21 49 -19 -65 2 -107 4 -124 21 -136 22 -16 126 -19 141 -4 7 7 64 6 180 -4
96 -8 225 -12 299 -9 186 8 225 8 366 3 114 -5 129 -3 148 14 11 11 21 24 21
29 0 6 -10 1 -23 -11 -13 -12 -32 -22 -43 -21 -15 0 -13 3 7 10 40 15 53 56
39 123 -12 60 -4 266 11 266 5 0 6 -42 3 -92 -3 -51 -1 -129 4 -173 8 -68 10
-44 11 155 1 239 -12 437 -31 477 -6 13 -7 36 -2 60 l8 38 6 -35 c6 -32 7 -30
13 25 9 81 6 245 -5 245 -4 0 -8 6 -8 14 0 8 -10 22 -22 30 -18 13 -54 16
-181 16 -103 0 -156 3 -152 10 4 6 -12 9 -42 8 -26 -2 -201 -4 -387 -5z m271
-75 c-6 -4 -52 -7 -102 -7 -56 0 -82 3 -70 8 26 11 189 10 172 -1z m-630 -620
c-3 -8 -6 -5 -6 6 -1 11 2 17 5 13 3 -3 4 -12 1 -19z m1048 -468 c13 -5 14 -9
5 -9 -8 0 -24 4 -35 9 -13 5 -14 9 -5 9 8 0 24 -4 35 -9z"/>
    <path d="M1948 3143 c12 -2 30 -2 40 0 9 3 -1 5 -23 4 -22 0 -30 -2 -17 -4z"/>
    <path d="M901 3054 c0 -11 3 -14 6 -6 3 7 2 16 -1 19 -3 4 -6 -2 -5 -13z"/>
    <path d="M2419 2974 c-7 -9 -11 -42 -10 -86 3 -101 11 -99 11 3 1 68 3 80 12
64 23 -39 2 -165 -27 -165 -7 0 -27 -3 -44 -6 -31 -6 -31 -6 -21 20 5 15 10
37 10 49 0 18 -6 22 -32 22 -26 0 -37 -6 -50 -30 l-17 -30 -1 35 c0 20 5 41
12 48 9 9 9 12 1 12 -18 0 -25 -35 -19 -98 4 -39 3 -49 -3 -32 -9 24 -9 24
-10 2 -1 -30 43 -99 69 -107 12 -4 61 7 123 28 125 43 226 60 234 41 3 -8 11
-14 17 -14 18 0 76 63 76 83 0 27 -44 32 -77 9 -39 -28 -93 -20 -93 13 0 54
-48 120 -78 110 -7 -3 -11 -1 -8 3 3 5 -10 16 -29 25 -29 14 -35 14 -46 1z
m36 -12 c-3 -3 -11 0 -18 7 -9 10 -8 11 6 5 10 -3 15 -9 12 -12z"/>
    <path d="M3808 2938 c-16 -34 -40 -131 -43 -182 -2 -29 -35 -66 -59 -66 -12 0
-66 -54 -66 -65 0 -10 93 -49 113 -47 12 0 17 -7 17 -27 0 -22 -10 -34 -50
-60 -51 -33 -65 -61 -32 -61 11 0 32 11 47 24 31 27 45 26 45 -4 0 -14 -6 -17
-22 -13 -21 4 -21 3 3 -11 14 -8 30 -26 37 -41 17 -36 102 -66 88 -30 -3 8 -2
15 2 15 4 0 7 37 6 81 -1 86 -1 87 55 132 29 24 17 43 -15 23 -33 -22 -33 -21
-21 25 8 32 17 44 38 52 16 6 27 18 26 27 0 8 3 32 7 53 7 32 12 37 37 37 24
0 29 -4 29 -23 0 -12 9 -40 20 -62 30 -59 27 -62 -39 -37 -11 4 -12 -1 -7 -21
4 -17 2 -27 -4 -27 -6 0 8 -25 31 -55 l41 -54 -23 -38 c-13 -21 -28 -41 -35
-45 -6 -4 -17 -28 -24 -54 -14 -47 -7 -63 27 -64 14 0 52 49 81 103 l20 38 26
-32 c15 -17 33 -44 42 -60 25 -50 104 -76 104 -35 0 8 -34 49 -75 90 -41 41
-75 82 -75 90 0 8 14 31 30 49 35 41 40 86 11 94 -28 7 -32 26 -20 83 13 60
33 84 64 76 25 -6 51 16 40 34 -3 5 -20 10 -37 10 -24 0 -41 10 -73 44 -31 32
-52 45 -79 48 -44 5 -60 -9 -40 -36 8 -11 14 -30 14 -43 0 -27 -40 -56 -64
-47 -9 3 -22 1 -30 -5 -10 -8 -16 -2 -26 29 -14 41 -88 120 -113 120 -7 0 -20
-15 -29 -32z m57 2 c18 -20 17 -20 -8 -20 -20 0 -27 5 -27 20 0 11 4 20 8 20
5 0 17 -9 27 -20z m-58 -62 c-3 -7 -5 -2 -5 12 0 14 2 19 5 13 2 -7 2 -19 0
-25z m-11 -64 c-4 -20 -10 -34 -12 -31 -3 3 -2 21 2 41 3 21 9 35 11 32 3 -3
2 -21 -1 -42z m342 -190 c6 -4 -28 -64 -36 -64 -4 0 -17 15 -29 32 -26 37 -16
50 32 41 16 -3 31 -7 33 -9z"/>
    <path d="M3065 2930 c-50 -18 -81 -35 -83 -45 -2 -10 22 -41 58 -77 48 -48 60
-66 58 -87 -2 -17 -10 -27 -23 -29 -37 -5 -105 -34 -105 -43 0 -5 14 -2 31 6
17 9 33 15 35 12 2 -2 -18 -14 -46 -27 -38 -18 -52 -20 -63 -11 -11 9 -17 8
-27 -4 -20 -24 3 -86 41 -115 28 -20 36 -22 63 -12 16 7 32 9 35 7 2 -3 -10
-23 -27 -44 -18 -23 -32 -51 -32 -67 0 -25 3 -26 33 -21 17 3 40 8 49 12 13 5
20 0 27 -17 11 -30 37 -52 51 -43 21 13 40 77 34 114 -4 28 -1 46 15 72 23 37
28 60 9 41 -17 -17 -28 -15 -28 5 0 9 15 31 34 48 22 20 33 39 31 51 -2 10 -4
29 -4 42 -1 17 -7 22 -26 22 -35 0 -33 34 3 65 23 19 28 31 26 60 -3 38 -56
116 -77 114 -7 0 -48 -14 -92 -29z m100 10 c3 -6 -4 -10 -17 -10 -18 0 -20 2
-8 10 19 12 18 12 25 0z m-100 -35 c-33 -14 -64 -25 -69 -25 -32 0 75 47 109
49 11 0 -7 -11 -40 -24z"/>
    <path d="M3386 2843 c2 -49 7 -110 9 -136 8 -86 -8 -102 -108 -111 -50 -4 -69
-22 -43 -41 16 -12 22 -11 45 5 14 10 42 20 61 22 35 3 35 2 41 -42 4 -25 3
-55 -2 -67 -10 -28 15 -104 42 -129 15 -14 24 -16 37 -7 14 8 17 28 19 99 3
182 -2 164 38 164 24 0 35 5 35 15 0 19 -32 35 -57 29 -17 -5 -21 0 -27 34 -3
23 -1 74 4 116 12 85 5 111 -36 126 -60 23 -63 18 -58 -77z"/>
    <path d="M3250 2812 c0 -22 57 -56 85 -51 26 5 32 39 9 56 -10 7 -35 13 -56
13 -30 0 -38 -4 -38 -18z"/>
    <path d="M3743 2748 c-13 -21 -53 -39 -72 -33 -13 4 -20 -3 -28 -30 -6 -19 -7
-35 -3 -35 5 0 11 13 15 29 4 21 11 28 23 25 19 -5 82 30 82 46 0 14 -7 13
-17 -2z"/>
    <path d="M3272 2683 c6 -50 81 -70 96 -25 4 13 -33 37 -71 46 -26 6 -28 5 -25
-21z"/>
    <path d="M2458 2670 c-75 -10 -144 -17 -155 -17 -14 2 -17 -4 -15 -26 4 -29
-61 -157 -78 -157 -6 0 -10 -25 -10 -55 0 -43 4 -56 19 -65 37 -19 50 -10 87
60 27 53 40 68 49 60 8 -7 37 -6 91 5 91 17 97 14 90 -55 -5 -57 15 -110 43
-110 20 0 21 5 18 93 l-2 92 48 5 c26 3 48 10 49 15 1 13 -71 25 -78 13 -3 -4
-12 -8 -20 -8 -12 0 -14 7 -9 33 9 37 20 47 58 47 15 0 27 5 27 10 0 6 -9 10
-19 10 -20 0 -153 -16 -203 -25 -26 -4 -58 15 -58 35 0 12 156 33 233 32 51
-2 68 1 65 11 -7 18 -77 17 -230 -3z m82 -112 c0 -13 -4 -29 -9 -37 -8 -13
-158 -43 -173 -34 -4 2 1 21 12 41 22 40 42 49 123 51 42 1 47 -1 47 -21z"/>
    <path d="M2935 2640 c-3 -5 -2 -10 4 -10 5 0 13 5 16 10 3 6 2 10 -4 10 -5 0
-13 -4 -16 -10z"/>
    <path d="M853 2605 c0 -22 2 -30 4 -17 2 12 2 30 0 40 -3 9 -5 -1 -4 -23z"/>
    <path d="M3400 2075 l0 -75 75 0 75 0 0 75 0 75 -75 0 -75 0 0 -75z"/>
    <path d="M2211 2063 c1 -47 3 -59 8 -38 5 25 12 31 39 33 34 3 56 30 46 56 -4
11 -19 16 -50 16 l-44 0 1 -67z m74 32 c0 -16 -7 -20 -30 -20 -24 0 -31 5 -33
23 -3 21 0 23 30 20 25 -2 33 -8 33 -23z"/>
    <path d="M2660 2070 c-13 -34 -20 -64 -16 -67 4 -4 9 3 13 15 7 30 62 32 70 2
3 -11 10 -20 15 -20 6 0 8 6 6 13 -3 6 -13 36 -22 65 -10 28 -23 52 -31 52 -7
0 -23 -27 -35 -60z m50 -2 c0 -10 -6 -18 -14 -18 -21 0 -25 11 -14 40 7 20 11
22 18 10 5 -8 10 -23 10 -32z"/>
    <path d="M2937 2068 c3 -61 13 -95 13 -46 0 45 23 51 49 12 13 -19 28 -34 33
-34 10 0 6 9 -25 53 l-19 28 23 25 c33 36 10 29 -28 -8 l-33 -32 0 32 c0 18
-4 32 -8 32 -5 0 -7 -28 -5 -62z"/>
    <path d="M3270 2076 c0 -58 -15 -80 -35 -53 -17 24 -28 21 -15 -3 12 -22 40
-26 58 -8 14 14 16 118 2 118 -5 0 -10 -24 -10 -54z"/>
    <path d="M2330 2050 c0 -27 5 -50 10 -50 6 0 10 23 10 50 0 28 -4 50 -10 50
-5 0 -10 -22 -10 -50z"/>
    <path d="M2370 2049 c0 -27 5 -49 10 -49 6 0 10 18 10 40 0 22 5 41 10 42 31
4 35 0 41 -42 l7 -45 -2 50 -1 50 -37 2 -38 1 0 -49z"/>
    <path d="M2492 2088 c-17 -17 -15 -63 3 -78 8 -7 24 -10 35 -7 24 6 26 -5 5
-23 -12 -10 -19 -10 -27 -2 -17 17 -33 15 -18 -3 15 -18 42 -19 58 -3 7 7 12
37 12 68 0 54 -1 56 -28 58 -15 1 -33 -3 -40 -10z m48 -13 c15 -18 5 -65 -15
-65 -23 0 -38 36 -25 60 13 24 23 25 40 5z"/>
    <path d="M2770 2049 c0 -60 18 -65 22 -6 2 34 7 42 23 42 16 0 21 -9 26 -45
l7 -45 -2 50 -1 50 -37 2 -38 1 0 -49z"/>
    <path d="M3072 2088 c-17 -17 -15 -63 2 -78 19 -15 58 -9 64 10 5 13 3 13 -11
1 -18 -14 -47 -9 -47 9 0 5 13 10 29 10 36 0 41 8 30 38 -9 24 -47 30 -67 10z
m56 -15 c2 -8 -6 -13 -22 -13 -25 0 -33 10 -19 24 10 10 36 3 41 -11z"/>
    <path d="M3320 2050 c0 -27 5 -50 10 -50 6 0 10 23 10 50 0 28 -4 50 -10 50
-5 0 -10 -22 -10 -50z"/>
  </g>
</svg>
